<svg width="246" height="40" viewBox="0 0 246 40" fill="none" xmlns="http://www.w3.org/2000/svg">
<path d="M63.94 28.168C62.772 28.168 61.716 27.968 60.772 27.568C59.844 27.168 59.108 26.592 58.564 25.84C58.02 25.088 57.74 24.2 57.724 23.176H61.324C61.372 23.864 61.612 24.408 62.044 24.808C62.492 25.208 63.1 25.408 63.868 25.408C64.652 25.408 65.268 25.224 65.716 24.856C66.164 24.472 66.388 23.976 66.388 23.368C66.388 22.872 66.236 22.464 65.932 22.144C65.628 21.824 65.244 21.576 64.78 21.4C64.332 21.208 63.708 21 62.908 20.776C61.82 20.456 60.932 20.144 60.244 19.84C59.572 19.52 58.988 19.048 58.492 18.424C58.012 17.784 57.772 16.936 57.772 15.88C57.772 14.888 58.02 14.024 58.516 13.288C59.012 12.552 59.708 11.992 60.604 11.608C61.5 11.208 62.524 11.008 63.676 11.008C65.404 11.008 66.804 11.432 67.876 12.28C68.964 13.112 69.564 14.28 69.676 15.784H65.98C65.948 15.208 65.7 14.736 65.236 14.368C64.788 13.984 64.188 13.792 63.436 13.792C62.78 13.792 62.252 13.96 61.852 14.296C61.468 14.632 61.276 15.12 61.276 15.76C61.276 16.208 61.42 16.584 61.708 16.888C62.012 17.176 62.38 17.416 62.812 17.608C63.26 17.784 63.884 17.992 64.684 18.232C65.772 18.552 66.66 18.872 67.348 19.192C68.036 19.512 68.628 19.992 69.124 20.632C69.62 21.272 69.868 22.112 69.868 23.152C69.868 24.048 69.636 24.88 69.172 25.648C68.708 26.416 68.028 27.032 67.132 27.496C66.236 27.944 65.172 28.168 63.94 28.168Z" fill="white"/>
<path d="M89.293 14.512C90.925 14.512 92.237 15.016 93.229 16.024C94.237 17.016 94.741 18.408 94.741 20.2V28H91.381V20.656C91.381 19.616 91.117 18.824 90.589 18.28C90.061 17.72 89.341 17.44 88.429 17.44C87.517 17.44 86.789 17.72 86.245 18.28C85.717 18.824 85.453 19.616 85.453 20.656V28H82.093V20.656C82.093 19.616 81.829 18.824 81.301 18.28C80.773 17.72 80.053 17.44 79.141 17.44C78.213 17.44 77.477 17.72 76.933 18.28C76.405 18.824 76.141 19.616 76.141 20.656V28H72.781V14.704H76.141V16.312C76.573 15.752 77.125 15.312 77.797 14.992C78.485 14.672 79.237 14.512 80.053 14.512C81.093 14.512 82.021 14.736 82.837 15.184C83.653 15.616 84.285 16.24 84.733 17.056C85.165 16.288 85.789 15.672 86.605 15.208C87.437 14.744 88.333 14.512 89.293 14.512Z" fill="white"/>
<path d="M97.0654 21.304C97.0654 19.96 97.3294 18.768 97.8574 17.728C98.4014 16.688 99.1294 15.888 100.041 15.328C100.969 14.768 102.001 14.488 103.137 14.488C104.129 14.488 104.993 14.688 105.729 15.088C106.481 15.488 107.081 15.992 107.529 16.6V14.704H110.913V28H107.529V26.056C107.097 26.68 106.497 27.2 105.729 27.616C104.977 28.016 104.105 28.216 103.113 28.216C101.993 28.216 100.969 27.928 100.041 27.352C99.1294 26.776 98.4014 25.968 97.8574 24.928C97.3294 23.872 97.0654 22.664 97.0654 21.304ZM107.529 21.352C107.529 20.536 107.369 19.84 107.049 19.264C106.729 18.672 106.297 18.224 105.753 17.92C105.209 17.6 104.625 17.44 104.001 17.44C103.377 17.44 102.801 17.592 102.273 17.896C101.745 18.2 101.313 18.648 100.977 19.24C100.657 19.816 100.497 20.504 100.497 21.304C100.497 22.104 100.657 22.808 100.977 23.416C101.313 24.008 101.745 24.464 102.273 24.784C102.817 25.104 103.393 25.264 104.001 25.264C104.625 25.264 105.209 25.112 105.753 24.808C106.297 24.488 106.729 24.04 107.049 23.464C107.369 22.872 107.529 22.168 107.529 21.352Z" fill="white"/>
<path d="M117.555 16.768C117.987 16.064 118.547 15.512 119.235 15.112C119.939 14.712 120.739 14.512 121.635 14.512V18.04H120.747C119.691 18.04 118.891 18.288 118.347 18.784C117.819 19.28 117.555 20.144 117.555 21.376V28H114.195V14.704H117.555V16.768Z" fill="white"/>
<path d="M127.81 17.464V23.896C127.81 24.344 127.914 24.672 128.122 24.88C128.346 25.072 128.714 25.168 129.226 25.168H130.786V28H128.674C125.842 28 124.426 26.624 124.426 23.872V17.464H122.842V14.704H124.426V11.416H127.81V14.704H130.786V17.464H127.81Z" fill="white"/>
<path d="M149.266 11.248V13.96H142.282V18.256H147.634V20.92H142.282V28H138.922V11.248H149.266Z" fill="white"/>
<path d="M153.352 13.12C152.76 13.12 152.264 12.936 151.864 12.568C151.48 12.184 151.288 11.712 151.288 11.152C151.288 10.592 151.48 10.128 151.864 9.76C152.264 9.376 152.76 9.184 153.352 9.184C153.944 9.184 154.432 9.376 154.816 9.76C155.216 10.128 155.416 10.592 155.416 11.152C155.416 11.712 155.216 12.184 154.816 12.568C154.432 12.936 153.944 13.12 153.352 13.12ZM155.008 14.704V28H151.648V14.704H155.008Z" fill="white"/>
<path d="M165.696 14.512C167.28 14.512 168.56 15.016 169.536 16.024C170.512 17.016 171 18.408 171 20.2V28H167.64V20.656C167.64 19.6 167.376 18.792 166.848 18.232C166.32 17.656 165.6 17.368 164.688 17.368C163.76 17.368 163.024 17.656 162.48 18.232C161.952 18.792 161.688 19.6 161.688 20.656V28H158.328V14.704H161.688V16.36C162.136 15.784 162.704 15.336 163.392 15.016C164.096 14.68 164.864 14.512 165.696 14.512Z" fill="white"/>
<path d="M173.331 21.304C173.331 19.96 173.595 18.768 174.123 17.728C174.667 16.688 175.395 15.888 176.307 15.328C177.235 14.768 178.267 14.488 179.403 14.488C180.395 14.488 181.259 14.688 181.995 15.088C182.747 15.488 183.347 15.992 183.795 16.6V14.704H187.179V28H183.795V26.056C183.363 26.68 182.763 27.2 181.995 27.616C181.243 28.016 180.371 28.216 179.379 28.216C178.259 28.216 177.235 27.928 176.307 27.352C175.395 26.776 174.667 25.968 174.123 24.928C173.595 23.872 173.331 22.664 173.331 21.304ZM183.795 21.352C183.795 20.536 183.635 19.84 183.315 19.264C182.995 18.672 182.563 18.224 182.019 17.92C181.475 17.6 180.891 17.44 180.267 17.44C179.643 17.44 179.067 17.592 178.539 17.896C178.011 18.2 177.579 18.648 177.243 19.24C176.923 19.816 176.763 20.504 176.763 21.304C176.763 22.104 176.923 22.808 177.243 23.416C177.579 24.008 178.011 24.464 178.539 24.784C179.083 25.104 179.659 25.264 180.267 25.264C180.891 25.264 181.475 25.112 182.019 24.808C182.563 24.488 182.995 24.04 183.315 23.464C183.635 22.872 183.795 22.168 183.795 21.352Z" fill="white"/>
<path d="M197.829 14.512C199.413 14.512 200.693 15.016 201.669 16.024C202.645 17.016 203.133 18.408 203.133 20.2V28H199.773V20.656C199.773 19.6 199.509 18.792 198.981 18.232C198.453 17.656 197.733 17.368 196.821 17.368C195.893 17.368 195.157 17.656 194.613 18.232C194.085 18.792 193.821 19.6 193.821 20.656V28H190.461V14.704H193.821V16.36C194.269 15.784 194.837 15.336 195.525 15.016C196.229 14.68 196.997 14.512 197.829 14.512Z" fill="white"/>
<path d="M205.464 21.352C205.464 19.976 205.744 18.776 206.304 17.752C206.864 16.712 207.64 15.912 208.632 15.352C209.624 14.776 210.76 14.488 212.04 14.488C213.688 14.488 215.048 14.904 216.12 15.736C217.208 16.552 217.936 17.704 218.304 19.192H214.68C214.488 18.616 214.16 18.168 213.696 17.848C213.248 17.512 212.688 17.344 212.016 17.344C211.056 17.344 210.296 17.696 209.736 18.4C209.176 19.088 208.896 20.072 208.896 21.352C208.896 22.616 209.176 23.6 209.736 24.304C210.296 24.992 211.056 25.336 212.016 25.336C213.376 25.336 214.264 24.728 214.68 23.512H218.304C217.936 24.952 217.208 26.096 216.12 26.944C215.032 27.792 213.672 28.216 212.04 28.216C210.76 28.216 209.624 27.936 208.632 27.376C207.64 26.8 206.864 26 206.304 24.976C205.744 23.936 205.464 22.728 205.464 21.352Z" fill="white"/>
<path d="M233.125 21.064C233.125 21.544 233.093 21.976 233.029 22.36H223.309C223.389 23.32 223.725 24.072 224.317 24.616C224.909 25.16 225.637 25.432 226.501 25.432C227.749 25.432 228.637 24.896 229.165 23.824H232.789C232.405 25.104 231.669 26.16 230.581 26.992C229.493 27.808 228.157 28.216 226.573 28.216C225.293 28.216 224.141 27.936 223.117 27.376C222.109 26.8 221.317 25.992 220.741 24.952C220.181 23.912 219.901 22.712 219.901 21.352C219.901 19.976 220.181 18.768 220.741 17.728C221.301 16.688 222.085 15.888 223.093 15.328C224.101 14.768 225.261 14.488 226.573 14.488C227.837 14.488 228.965 14.76 229.957 15.304C230.965 15.848 231.741 16.624 232.285 17.632C232.845 18.624 233.125 19.768 233.125 21.064ZM229.645 20.104C229.629 19.24 229.317 18.552 228.709 18.04C228.101 17.512 227.357 17.248 226.477 17.248C225.645 17.248 224.941 17.504 224.365 18.016C223.805 18.512 223.461 19.208 223.333 20.104H229.645Z" fill="white"/>
<path d="M240.666 28.216C239.578 28.216 238.602 28.024 237.738 27.64C236.874 27.24 236.186 26.704 235.674 26.032C235.178 25.36 234.906 24.616 234.858 23.8H238.242C238.306 24.312 238.554 24.736 238.986 25.072C239.434 25.408 239.986 25.576 240.642 25.576C241.282 25.576 241.778 25.448 242.13 25.192C242.498 24.936 242.682 24.608 242.682 24.208C242.682 23.776 242.458 23.456 242.01 23.248C241.578 23.024 240.882 22.784 239.922 22.528C238.93 22.288 238.114 22.04 237.474 21.784C236.85 21.528 236.306 21.136 235.842 20.608C235.394 20.08 235.17 19.368 235.17 18.472C235.17 17.736 235.378 17.064 235.794 16.456C236.226 15.848 236.834 15.368 237.618 15.016C238.418 14.664 239.354 14.488 240.426 14.488C242.01 14.488 243.274 14.888 244.218 15.688C245.162 16.472 245.682 17.536 245.778 18.88H242.562C242.514 18.352 242.29 17.936 241.89 17.632C241.506 17.312 240.986 17.152 240.33 17.152C239.722 17.152 239.25 17.264 238.914 17.488C238.594 17.712 238.434 18.024 238.434 18.424C238.434 18.872 238.658 19.216 239.106 19.456C239.554 19.68 240.25 19.912 241.194 20.152C242.154 20.392 242.946 20.64 243.57 20.896C244.194 21.152 244.73 21.552 245.178 22.096C245.642 22.624 245.882 23.328 245.898 24.208C245.898 24.976 245.682 25.664 245.25 26.272C244.834 26.88 244.226 27.36 243.426 27.712C242.642 28.048 241.722 28.216 240.666 28.216Z" fill="white"/>
<path d="M34.1422 5.85781C30.3647 2.08031 25.3422 0 20 0C14.6578 0 9.63531 2.08031 5.85781 5.85781C2.08031 9.63531 0 14.6578 0 20C0 25.3422 2.08039 30.3646 5.85781 34.1422C9.63523 37.9198 14.6578 40 20 40C25.3422 40 30.3647 37.9197 34.1422 34.1422C37.9197 30.3647 40 25.3422 40 20C40 14.6578 37.9196 9.63539 34.1422 5.85781Z" fill="#33CC95"/>
<g clip-path="url(#clip0)">
<path d="M20.5714 8V33.1429" stroke="white" stroke-width="2" stroke-linecap="round" stroke-linejoin="round"/>
<path d="M26.2857 12.5714H17.7143C16.6534 12.5714 15.636 12.9929 14.8859 13.743C14.1357 14.4931 13.7143 15.5106 13.7143 16.5714C13.7143 17.6323 14.1357 18.6497 14.8859 19.3999C15.636 20.15 16.6534 20.5714 17.7143 20.5714H23.4286C24.4894 20.5714 25.5069 20.9929 26.257 21.743C27.0072 22.4932 27.4286 23.5106 27.4286 24.5714C27.4286 25.6323 27.0072 26.6497 26.257 27.3999C25.5069 28.15 24.4894 28.5714 23.4286 28.5714H13.7143" stroke="white" stroke-width="2" stroke-linecap="round" stroke-linejoin="round"/>
</g>
<defs>
<clipPath id="clip0">
<rect width="27.4286" height="27.4286" fill="white" transform="translate(6.85715 6.85714)"/>
</clipPath>
</defs>
</svg>
